<?xml version="1.0" encoding="UTF-8" standalone="no"?>
<!-- Created with Inkscape (http://www.inkscape.org/) -->

<svg
   xmlns:dc="http://purl.org/dc/elements/1.1/"
   xmlns:cc="http://creativecommons.org/ns#"
   xmlns:rdf="http://www.w3.org/1999/02/22-rdf-syntax-ns#"
   xmlns:svg="http://www.w3.org/2000/svg"
   xmlns="http://www.w3.org/2000/svg"
   xmlns:sodipodi="http://sodipodi.sourceforge.net/DTD/sodipodi-0.dtd"
   xmlns:inkscape="http://www.inkscape.org/namespaces/inkscape"
   width="93.168457mm"
   height="27.065111mm"
   viewBox="0 0 93.168457 27.065111"
   version="1.1"
   id="svg8"
   inkscape:version="0.92.5 (2060ec1f9f, 2020-04-08)"
   sodipodi:docname="Qoogle Logo.svg"
   inkscape:export-filename="/home/qmarlats/Documents/TOPProjects/QoogleAssets/Qoogle Logo.png"
   inkscape:export-xdpi="96"
   inkscape:export-ydpi="96">
  <defs
     id="defs2" />
  <sodipodi:namedview
     id="base"
     pagecolor="#ffffff"
     bordercolor="#666666"
     borderopacity="1.0"
     inkscape:pageopacity="0.0"
     inkscape:pageshadow="2"
     inkscape:zoom="1"
     inkscape:cx="44.120101"
     inkscape:cy="5.5367449"
     inkscape:document-units="mm"
     inkscape:current-layer="text817"
     showgrid="false"
     inkscape:window-width="1848"
     inkscape:window-height="911"
     inkscape:window-x="72"
     inkscape:window-y="27"
     inkscape:window-maximized="1" />
  <metadata
     id="metadata5">
    <rdf:RDF>
      <cc:Work
         rdf:about="">
        <dc:format>image/svg+xml</dc:format>
        <dc:type
           rdf:resource="http://purl.org/dc/dcmitype/StillImage" />
        <dc:title />
      </cc:Work>
    </rdf:RDF>
  </metadata>
  <g
     inkscape:label="Calque 1"
     inkscape:groupmode="layer"
     id="layer1"
     transform="translate(-23.051506,-68.956375)">
    <g
       aria-label="Qoogle"
       style="font-style:normal;font-weight:normal;font-size:10.58333302px;line-height:1.25;font-family:sans-serif;letter-spacing:0px;word-spacing:0px;fill:#000000;fill-opacity:1;stroke:none;stroke-width:0.26458332"
       id="text817">
      <path
         d="m 32.957506,68.956375 q 4.487333,0 7.196666,3.048 2.709333,3.048 2.709333,7.676445 0,2.088444 -0.620889,4.063999 -0.592666,1.947334 -1.636888,3.217334 l 2.257777,2.144888 -2.144889,2.286 -2.427111,-2.286 q -2.342444,1.411112 -5.333999,1.411112 -4.459111,0 -7.196667,-3.019778 -2.709333,-3.048 -2.709333,-7.761111 0,-4.713111 2.709333,-7.732889 2.737556,-3.048 7.196667,-3.048 z m 2.427111,13.066889 2.314222,2.201333 q 0.931333,-1.862666 0.931333,-4.459111 0,-3.273777 -1.552222,-5.221111 -1.524,-1.975555 -4.120444,-1.975555 -2.568223,0 -4.120445,1.975555 -1.552222,1.947334 -1.552222,5.192889 0,3.245555 1.552222,5.221111 1.552222,1.947333 4.092222,1.947333 1.467556,0 2.483556,-0.536222 l -2.173111,-2.060222 z"
         style="font-style:normal;font-variant:normal;font-weight:600;font-stretch:normal;font-size:28.22222137px;font-family:FreeSans;-inkscape-font-specification:'FreeSans, Semi-Bold';font-variant-ligatures:normal;font-variant-caps:normal;font-variant-numeric:normal;font-feature-settings:normal;text-align:start;writing-mode:lr-tb;text-anchor:start;fill:#0545de;fill-opacity:1"
         id="path15"
         inkscape:connector-curvature="0" />
      <path
         d="m 52.099215,74.375042 q 3.584222,0 5.559777,2.173111 2.003778,2.144889 2.003778,6.011333 0,3.668889 -2.032,5.813778 -2.032,2.144889 -5.503333,2.144889 -3.527778,0 -5.531556,-2.144889 -2.003777,-2.173111 -2.003777,-5.926667 0,-3.753555 2.003777,-5.898444 2.003778,-2.173111 5.503334,-2.173111 z m 0.02822,3.189111 q -1.608667,0 -2.596445,1.354667 -0.987777,1.354666 -0.987777,3.527777 0,2.173111 0.987777,3.527778 0.987778,1.354667 2.596445,1.354667 1.580444,0 2.568222,-1.326445 1.016,-1.354667 1.016,-3.499555 0,-2.257778 -0.987778,-3.584222 -0.959555,-1.354667 -2.596444,-1.354667 z"
         style="font-style:normal;font-variant:normal;font-weight:600;font-stretch:normal;font-size:28.22222137px;font-family:FreeSans;-inkscape-font-specification:'FreeSans, Semi-Bold';font-variant-ligatures:normal;font-variant-caps:normal;font-variant-numeric:normal;font-feature-settings:normal;text-align:start;writing-mode:lr-tb;text-anchor:start;fill:#bf1a2f;fill-opacity:1"
         id="path17"
         inkscape:connector-curvature="0" />
      <path
         d="m 68.898449,74.375042 q 3.584222,0 5.559778,2.173111 2.003777,2.144889 2.003777,6.011333 0,3.668889 -2.032,5.813778 -2.032,2.144889 -5.503333,2.144889 -3.527777,0 -5.531555,-2.144889 -2.003778,-2.173111 -2.003778,-5.926667 0,-3.753555 2.003778,-5.898444 2.003778,-2.173111 5.503333,-2.173111 z m 0.02822,3.189111 q -1.608666,0 -2.596444,1.354667 -0.987778,1.354666 -0.987778,3.527777 0,2.173111 0.987778,3.527778 0.987778,1.354667 2.596444,1.354667 1.580445,0 2.568222,-1.326445 1.016,-1.354667 1.016,-3.499555 0,-2.257778 -0.987777,-3.584222 -0.959556,-1.354667 -2.596445,-1.354667 z"
         style="font-style:normal;font-variant:normal;font-weight:600;font-stretch:normal;font-size:28.22222137px;font-family:FreeSans;-inkscape-font-specification:'FreeSans, Semi-Bold';font-variant-ligatures:normal;font-variant-caps:normal;font-variant-numeric:normal;font-feature-settings:normal;text-align:start;writing-mode:lr-tb;text-anchor:start;fill:#faa916;fill-opacity:1"
         id="path19"
         inkscape:connector-curvature="0" />
      <path
         d="m 88.745681,74.629042 h 3.753556 v 15.747999 q 0,2.681111 -1.919111,4.148667 -1.890889,1.495778 -5.334,1.495778 -3.048,0 -4.882444,-1.185334 -1.834445,-1.157111 -1.862667,-3.132666 h 4.092222 q 0.479778,1.778 2.794,1.778 1.495778,0 2.427111,-0.874889 0.931333,-0.846667 0.931333,-2.229556 v -2.060222 q -1.100666,1.241778 -2.060222,1.721556 -0.931333,0.479778 -2.257777,0.479778 -2.822223,0 -4.543778,-2.173112 -1.693333,-2.173111 -1.693333,-5.72911 0,-3.527778 1.806222,-5.870222 1.806222,-2.370667 4.515555,-2.370667 2.54,0 4.233333,2.596444 z m -3.386666,3.048 q -1.439333,0 -2.342445,1.354666 -0.874888,1.354667 -0.874888,3.527778 0,2.060222 0.874888,3.358444 0.874889,1.298223 2.286,1.298223 1.552223,0 2.511778,-1.298223 0.987778,-1.298222 0.987778,-3.358444 0,-2.116666 -0.987778,-3.499555 -0.959555,-1.382889 -2.455333,-1.382889 z"
         style="font-style:normal;font-variant:normal;font-weight:600;font-stretch:normal;font-size:28.22222137px;font-family:FreeSans;-inkscape-font-specification:'FreeSans, Semi-Bold';font-variant-ligatures:normal;font-variant-caps:normal;font-variant-numeric:normal;font-feature-settings:normal;text-align:start;writing-mode:lr-tb;text-anchor:start;fill:#0545de;fill-opacity:1"
         id="path21"
         inkscape:connector-curvature="0" />
      <path
         d="M 99.590054,69.295042 V 89.869041 H 95.638943 V 69.295042 Z"
         style="font-style:normal;font-variant:normal;font-weight:600;font-stretch:normal;font-size:28.22222137px;font-family:FreeSans;-inkscape-font-specification:'FreeSans, Semi-Bold';font-variant-ligatures:normal;font-variant-caps:normal;font-variant-numeric:normal;font-feature-settings:normal;text-align:start;writing-mode:lr-tb;text-anchor:start;fill:#018e42;fill-opacity:1"
         id="path23"
         inkscape:connector-curvature="0" />
      <path
         d="m 109.07974,74.375042 q 0.98778,0 1.91911,0.225778 0.93133,0.225777 1.89089,0.818444 0.98778,0.592667 1.69333,1.524 0.73378,0.903111 1.18534,2.427111 0.45155,1.495778 0.45155,3.443111 0,0.338667 -0.0282,0.677333 H 105.9753 q 0.0282,0.874889 0.14111,1.524 0.14111,0.620889 0.45155,1.241778 0.33867,0.592667 0.95956,0.931333 0.64911,0.310445 1.60866,0.310445 2.25778,0 3.01978,-1.919111 h 3.89467 q -0.64911,2.257778 -2.56822,3.612444 -1.91911,1.326445 -4.48734,1.326445 -3.24555,0 -5.10822,-2.088445 -1.86267,-2.116666 -1.86267,-5.785555 0,-3.838222 1.89089,-6.039556 1.89089,-2.229555 5.16467,-2.229555 z m 3.01978,6.491111 q -0.14111,-1.665111 -0.93134,-2.568222 -0.762,-0.903111 -2.14488,-0.903111 -2.59645,0 -2.99156,3.471333 z"
         style="font-style:normal;font-variant:normal;font-weight:600;font-stretch:normal;font-size:28.22222137px;font-family:FreeSans;-inkscape-font-specification:'FreeSans, Semi-Bold';font-variant-ligatures:normal;font-variant-caps:normal;font-variant-numeric:normal;font-feature-settings:normal;text-align:start;writing-mode:lr-tb;text-anchor:start;fill:#bf1a2f;fill-opacity:1"
         id="path25"
         inkscape:connector-curvature="0" />
    </g>
  </g>
</svg>
